<?xml version="1.0" standalone="no"?>
<!DOCTYPE svg PUBLIC "-//W3C//DTD SVG 20010904//EN"
 "http://www.w3.org/TR/2001/REC-SVG-20010904/DTD/svg10.dtd">
<svg version="1.0" xmlns="http://www.w3.org/2000/svg"
 width="6571.000000pt" height="3594.000000pt" viewBox="0 0 6571.000000 3594.000000"
 preserveAspectRatio="xMidYMid meet">

<g transform="translate(0.000000,3594.000000) scale(0.100000,-0.100000)"
fill="#000000" stroke="none">
<path d="M31160 35389 c-9291 -105 -17091 -1087 -19900 -2505 -606 -306 -939
-602 -1062 -944 l-23 -65 -3 -1002 c-3 -1122 -5 -1079 68 -1232 76 -158 201
-306 381 -450 1874 -1509 9289 -2644 18749 -2871 366 -9 1433 -30 1523 -30
l27 0 0 -10654 0 -10654 -72 -6 c-40 -3 -174 -13 -298 -22 -1082 -74 -2185
-220 -3005 -399 -1041 -227 -1719 -498 -2036 -814 -111 -112 -169 -211 -188
-328 -9 -48 -11 -246 -9 -668 4 -593 4 -601 26 -660 123 -328 618 -624 1452
-871 644 -191 1468 -348 2420 -463 3455 -418 7738 -193 9900 520 685 226 1091
472 1243 753 18 32 38 68 44 80 20 33 18 1236 -2 1329 -44 211 -248 414 -595
595 -893 466 -2784 825 -5015 952 -99 5 -217 13 -263 16 l-82 6 2 10641 3
10642 710 12 c796 13 1411 27 2120 48 9039 277 16017 1391 17824 2846 180 144
305 292 381 450 73 153 71 110 68 1232 l-3 1002 -24 65 c-84 234 -249 429
-535 634 -1823 1303 -7841 2326 -15796 2686 -2552 115 -5331 160 -8030 129z
m-5261 -333 c-2 -2 -150 -63 -329 -134 -666 -266 -1889 -769 -2975 -1222
-2900 -1211 -5602 -2388 -8225 -3584 -272 -124 -503 -226 -513 -226 -44 0
-741 186 -1067 285 -238 72 -523 165 -532 174 -4 3 156 62 355 130 2810 957
5528 1989 10536 3998 l1235 496 110 8 c61 4 309 19 551 34 242 14 501 29 575
34 158 10 285 13 279 7z m14771 -41 c1066 -61 2510 -171 3570 -270 837 -79
1830 -186 1830 -196 0 -11 -1171 -714 -3405 -2044 -3379 -2012 -5085 -3047
-6660 -4044 l-310 -196 -295 -7 c-162 -3 -1049 -10 -1970 -14 -1625 -6 -2515
0 -3645 26 -937 22 -2127 60 -2137 69 -6 6 156 94 1597 874 3110 1682 6418
3433 9455 5004 854 442 1576 811 1595 815 11 2 40 3 65 1 25 -2 164 -10 310
-18z m-8132 -8742 l562 -6 0 -11403 0 -11403 -57 -8 c-32 -4 -201 -8 -375 -8
l-318 0 0 -58 0 -57 -57 6 c-102 10 -246 34 -340 55 l-92 20 -3 61 -3 60 -122
43 c-129 45 -242 95 -311 139 l-42 26 0 11270 0 11270 298 0 c163 0 550 -3
860 -7z m-2068 -22964 c25 -5 51 -12 58 -14 8 -3 -107 -65 -255 -139 -147 -74
-329 -169 -403 -212 -74 -42 -207 -117 -295 -167 -88 -49 -293 -170 -456 -268
l-295 -177 -214 39 c-210 39 -456 91 -615 130 -159 39 -415 112 -415 119 0 6
1512 387 1890 475 107 25 240 57 295 71 55 14 118 30 140 34 22 5 103 25 180
45 77 19 155 38 173 41 18 3 50 12 70 19 45 17 83 18 142 4z m-3938 -914
c1150 -391 2916 -643 5168 -737 402 -17 1922 -17 2320 0 374 16 663 30 763 38
l77 6 0 -471 c0 -442 -1 -471 -17 -471 -10 0 -144 -7 -298 -15 -1046 -56
-2215 -59 -3280 -10 -1971 92 -3678 357 -4757 738 l-148 52 0 462 c0 255 2
463 4 463 3 0 78 -25 168 -55z"/>
<path d="M11595 22399 c-327 -15 -677 -52 -1645 -174 -1934 -245 -3773 -532
-5135 -801 -1834 -362 -2935 -703 -3332 -1032 -97 -81 -233 -275 -318 -455
-123 -261 -174 -509 -175 -839 0 -368 76 -709 227 -1020 88 -181 177 -312 292
-428 152 -153 267 -221 454 -265 306 -72 1857 -355 3322 -605 2464 -422 4633
-747 5743 -862 l222 -23 0 -6291 0 -6291 -97 -7 c-264 -18 -510 -39 -723 -62
-1492 -158 -2464 -461 -2642 -822 l-23 -47 0 -430 0 -430 24 -48 c107 -219
503 -417 1156 -578 678 -167 1550 -276 2660 -331 323 -16 1432 -16 1760 0
1124 55 1994 167 2675 343 608 157 979 346 1106 562 l35 59 -3 422 -3 421 -29
59 c-192 392 -1334 715 -3021 856 -137 11 -344 26 -460 33 l-210 12 -3 6313
c-1 3471 1 6312 4 6312 19 0 705 88 1014 131 1621 222 4322 664 6562 1074
1088 199 1265 237 1383 295 301 148 560 514 694 980 73 255 95 437 88 730 -4
192 -9 243 -32 350 -64 307 -183 563 -362 781 -64 78 -112 119 -219 189 -707
464 -3039 997 -6609 1510 -1108 159 -2570 346 -3015 384 -384 34 -943 44
-1365 25z m1010 -120 c296 -15 575 -44 1425 -149 2198 -273 4388 -624 5896
-945 1451 -310 2376 -613 2689 -880 30 -25 77 -75 105 -110 l52 -65 -18 -28
c-111 -172 -263 -315 -406 -382 -100 -47 -376 -103 -1543 -315 -2875 -522
-5831 -990 -7385 -1169 -1114 -129 -1536 -129 -2650 0 -1449 167 -4287 612
-6920 1085 -278 50 -543 97 -590 104 -337 52 -1286 240 -1368 271 -141 53
-318 203 -426 361 l-49 72 51 64 c67 84 115 127 219 194 727 474 3360 1052
7213 1582 1388 191 2285 294 2750 314 178 8 771 6 955 -4z m-11201 -2346 c132
-175 311 -312 481 -366 311 -100 4102 -762 6305 -1101 2074 -320 3242 -456
3905 -456 734 0 2127 172 4640 571 1884 299 4974 842 5494 965 225 53 415 187
576 405 l43 59 51 -103 c193 -393 231 -880 107 -1371 -125 -491 -398 -880
-700 -997 -106 -40 -780 -171 -2026 -393 -2809 -500 -5488 -919 -6910 -1081
-684 -77 -726 -80 -1280 -80 -557 1 -655 7 -1365 91 -1605 189 -4578 661
-7430 1180 -1014 184 -1351 253 -1441 294 -320 145 -589 567 -694 1090 -77
380 -60 742 50 1071 43 129 127 306 139 293 4 -5 29 -37 55 -71z m10704 -4078
l512 0 0 -6743 c0 -6412 -1 -6743 -17 -6749 -10 -4 -116 -7 -235 -8 l-218 0 0
-38 c0 -33 -2 -37 -22 -33 -13 3 -48 7 -78 11 -30 3 -90 13 -132 22 l-77 16
-3 39 -3 40 -92 33 c-50 18 -116 47 -147 65 l-56 31 0 6665 0 6664 28 -7 c15
-5 258 -8 540 -8z m-1104 -13592 c14 -4 -24 -27 -135 -83 -172 -86 -438 -235
-726 -407 l-192 -115 -127 22 c-259 45 -662 146 -647 161 8 7 1002 258 1168
294 44 9 105 24 135 32 30 8 73 19 95 24 22 5 108 26 190 48 142 37 182 41
239 24z m-2428 -586 c712 -229 1807 -383 3109 -438 497 -20 1382 -13 1918 17
l117 7 0 -290 0 -290 -92 -7 c-477 -32 -1539 -41 -2043 -18 -1290 61 -2315
211 -2997 439 l-173 58 -3 289 c-2 243 0 287 12 283 7 -3 76 -26 152 -50z"/>
<path d="M53125 22399 c-321 -14 -612 -45 -1530 -160 -2010 -251 -3944 -554
-5368 -839 -1768 -354 -2830 -687 -3213 -1007 -142 -119 -313 -397 -394 -642
-71 -211 -91 -335 -97 -591 -7 -306 22 -525 104 -782 144 -458 403 -805 700
-939 108 -49 349 -99 1473 -304 3044 -554 6329 -1070 7758 -1217 l222 -23 0
-6291 0 -6291 -97 -7 c-264 -18 -510 -39 -723 -62 -1492 -158 -2464 -461
-2642 -822 l-23 -47 0 -430 c0 -428 0 -430 23 -477 189 -383 1271 -701 2887
-847 613 -56 1071 -75 1805 -75 616 0 876 8 1365 40 1393 91 2523 326 3033
630 105 63 227 172 257 231 10 21 25 45 32 54 11 13 13 97 11 440 l-3 424 -28
57 c-136 276 -734 520 -1702 692 -504 90 -1161 163 -1780 199 l-210 12 -3
6313 c-1 3471 0 6312 2 6312 19 0 726 91 1014 131 1846 253 5398 844 7369
1225 483 93 546 112 684 204 94 63 245 221 322 336 230 346 357 793 357 1252
-1 330 -52 578 -175 839 -85 180 -221 374 -318 455 -609 505 -2973 1062 -6842
1613 -1151 164 -2464 331 -2905 369 -384 34 -942 44 -1365 25z m1010 -120
c231 -11 359 -23 755 -68 1361 -157 3017 -390 4372 -617 2345 -391 3913 -771
4600 -1114 199 -100 290 -166 382 -279 l59 -72 -36 -52 c-163 -236 -334 -361
-562 -412 -356 -78 -1655 -316 -2985 -546 -2403 -415 -4524 -739 -5770 -883
-1114 -129 -1536 -129 -2650 0 -1396 161 -3951 559 -6600 1028 -294 52 -627
111 -740 131 -841 148 -1449 267 -1538 301 -141 53 -318 203 -426 361 l-49 72
51 64 c67 84 115 127 219 194 725 472 3342 1048 7178 1577 1407 195 2314 298
2785 319 178 8 771 6 955 -4z m-11201 -2346 c132 -175 311 -312 481 -366 209
-67 2455 -473 4440 -802 2340 -388 4076 -636 5045 -720 744 -64 1211 -44 2412
105 1730 216 5271 791 7793 1266 741 140 788 152 933 247 87 56 226 191 295
285 l45 62 51 -103 c188 -383 228 -857 114 -1342 -77 -330 -234 -636 -423
-826 -100 -101 -188 -163 -285 -200 -105 -40 -783 -172 -2025 -393 -2807 -500
-5489 -919 -6910 -1081 -680 -77 -727 -80 -1275 -80 -536 0 -591 3 -1195 71
-1671 185 -5400 782 -8280 1325 -704 133 -752 145 -887 237 -219 149 -425 474
-529 836 -124 431 -122 872 6 1257 42 129 127 306 139 293 4 -5 29 -37 55 -71z
m10704 -4078 l512 0 0 -6743 c0 -6412 -1 -6743 -17 -6749 -10 -4 -116 -7 -235
-8 l-218 0 0 -38 c0 -33 -2 -37 -22 -33 -13 3 -48 7 -78 11 -30 3 -90 13 -132
22 l-77 16 -3 39 -3 40 -93 33 c-51 18 -116 47 -145 63 l-52 29 -3 6667 -2
6666 27 -7 c16 -5 259 -8 541 -8z m-1132 -13586 l45 -12 -198 -99 c-109 -54
-205 -105 -213 -112 -8 -7 -62 -39 -120 -70 -58 -32 -203 -117 -323 -188
l-218 -130 -126 22 c-262 46 -662 145 -646 161 8 8 977 253 1148 290 117 26
95 20 365 88 129 33 236 60 238 60 2 1 23 -4 48 -10z m-2400 -592 c712 -229
1807 -383 3109 -438 497 -20 1382 -13 1918 17 l117 7 0 -290 0 -291 -102 -6
c-809 -51 -1797 -44 -2658 19 -972 72 -1814 215 -2375 403 l-170 57 -3 289
c-2 243 0 287 12 283 7 -3 76 -26 152 -50z"/>
</g>
</svg>
