<?xml version="1.0" standalone="no"?>
<!DOCTYPE svg PUBLIC "-//W3C//DTD SVG 20010904//EN"
 "http://www.w3.org/TR/2001/REC-SVG-20010904/DTD/svg10.dtd">
<svg version="1.0" xmlns="http://www.w3.org/2000/svg"
 width="5750.000000pt" height="2467.000000pt" viewBox="0 0 5750.000000 2467.000000"
 preserveAspectRatio="xMidYMid meet">

<g transform="translate(0.000000,2467.000000) scale(0.100000,-0.100000)"
fill="#000000" stroke="none">
<path d="M3085 23743 c-66 -9 -231 -55 -299 -83 -199 -83 -400 -269 -510 -470
-78 -143 -137 -388 -121 -504 77 -586 2336 -12053 2524 -12816 70 -282 124
-397 250 -531 228 -245 412 -327 801 -358 117 -10 622 -31 730 -31 l38 0 5
-268 c5 -281 11 -327 60 -431 11 -25 47 -72 79 -103 69 -68 109 -83 273 -98
273 -25 1633 -39 5415 -55 1776 -8 3320 -23 3615 -35 359 -16 412 -27 440 -94
46 -110 57 -725 59 -3326 l1 -2185 -33 -68 c-19 -37 -50 -85 -70 -106 -46 -48
-89 -58 -303 -72 -94 -6 -1823 -13 -4409 -18 -5663 -12 -6670 -20 -6754 -55
-157 -66 -270 -240 -270 -416 0 -107 62 -300 108 -334 83 -63 292 -87 936
-107 225 -7 2372 -13 6183 -16 l5839 -5 150 150 151 150 -22 328 c-37 558
-136 1985 -256 3689 -261 3705 -243 3411 -218 3437 29 28 71 35 319 53 328 23
455 48 609 123 103 51 187 113 304 226 155 151 212 261 249 479 14 87 16 181
17 622 0 573 -3 600 -64 730 -110 235 -380 494 -588 564 -81 27 -226 39 -598
51 -398 12 -2408 27 -5570 40 -3219 14 -4103 26 -4325 60 -36 6 -92 24 -125
40 -134 65 -359 264 -443 390 -67 100 -123 285 -536 1770 -354 1274 -664 2387
-1031 3700 -156 558 -453 1623 -660 2365 -682 2445 -858 3032 -947 3163 -85
124 -246 261 -398 337 -191 96 -428 142 -605 118z"/>
<path d="M27080 23489 c-2168 -23 -2870 -37 -2911 -59 -31 -17 -123 -353 -603
-2210 -75 -289 -226 -871 -336 -1295 -110 -423 -255 -983 -322 -1242 l-122
-473 -815 0 c-1029 0 -1097 -5 -1249 -92 -208 -120 -283 -259 -283 -533 0
-147 21 -251 68 -337 61 -112 231 -227 365 -248 199 -30 460 -33 4331 -37
l3917 -4 0 -4642 c0 -5444 -9 -6511 -52 -6553 -27 -26 -798 -420 -2793 -1429
-748 -378 -1657 -838 -2020 -1023 -1393 -707 -1885 -956 -2313 -1173 l-443
-224 3 -452 c2 -248 6 -455 10 -459 9 -9 1228 435 4893 1781 2076 763 2637
965 2676 965 23 0 39 -62 39 -155 l0 -95 361 0 361 0 -3 92 -4 93 27 3 c61 7
2 28 2998 -1073 3000 -1102 4406 -1615 4429 -1615 5 0 11 10 14 23 14 53 26
303 29 577 l3 295 -170 88 c-158 81 -862 439 -2390 1215 -346 176 -1183 598
-1860 939 -1914 965 -2957 1498 -3010 1538 -25 19 -26 26 -36 165 -22 337 -29
1804 -29 6328 l0 4792 3578 0 c4155 1 4581 6 4738 59 124 41 257 152 307 255
46 93 59 180 54 346 -5 166 -19 220 -89 329 -92 145 -144 176 -343 206 -340
49 -708 54 -5170 64 -2249 6 -4259 13 -4465 18 -359 7 -368 7 -215 15 201 9
227 14 221 36 -22 80 -240 793 -450 1468 l-254 822 104 458 c390 1708 546
2426 530 2441 -12 12 -184 22 -371 20 -104 0 -525 -4 -935 -8z m863 -128 c159
-5 293 -13 298 -18 10 -10 -75 -397 -525 -2373 -361 -1589 -559 -2467 -576
-2560 -7 -36 -18 -71 -24 -78 -21 -22 -702 -32 -2201 -32 -1547 0 -1917 9
-1953 44 -12 12 238 997 823 3241 189 726 367 1411 396 1522 l52 201 91 6
c178 11 2422 49 3141 54 105 0 320 -3 478 -7z"/>
<path d="M25066 22830 c-264 -7 -321 -11 -334 -23 -37 -37 8 -59 164 -78 128
-15 1892 -24 2154 -10 213 11 274 21 284 46 9 24 -35 45 -120 56 -100 13
-1713 20 -2148 9z"/>
<path d="M54055 23476 c-88 -18 -137 -36 -228 -83 -148 -78 -325 -232 -407
-355 -47 -71 -100 -205 -184 -471 -86 -270 -119 -385 -596 -2097 -415 -1487
-1522 -5446 -1845 -6595 -336 -1195 -498 -1738 -542 -1815 -100 -174 -273
-323 -503 -434 l-95 -45 -5195 -29 -5195 -28 -112 -62 c-138 -75 -207 -125
-298 -217 -95 -95 -166 -191 -224 -305 -81 -158 -101 -251 -122 -553 -14 -209
-6 -656 15 -772 45 -256 268 -586 482 -713 197 -117 375 -160 782 -189 l252
-17 0 -97 c0 -179 -101 -1689 -210 -3154 -34 -450 -96 -1337 -169 -2415 -27
-399 -64 -935 -82 -1192 -37 -524 -36 -550 23 -666 37 -74 128 -171 187 -202
38 -19 67 -21 488 -30 593 -13 3907 -30 5953 -30 2046 0 5360 17 5953 30 517
11 484 5 586 116 68 75 123 175 142 259 17 75 -5 168 -69 296 -45 89 -50 95
-102 121 -100 50 -310 71 -865 89 -220 7 -2144 13 -5463 16 l-5123 5 -113 97
-113 96 -8 2165 c-8 2123 0 3139 24 3302 15 92 52 163 100 187 86 44 233 64
616 82 139 7 1708 14 4250 19 4388 9 4626 12 4747 63 41 17 119 100 147 155
46 89 53 144 60 422 l6 265 185 7 c791 30 972 62 1185 208 80 56 252 227 304
303 52 76 108 204 136 312 30 116 725 3587 1486 7425 291 1471 637 3215 769
3875 131 660 249 1265 262 1345 17 110 22 187 22 320 0 172 0 177 -32 269 -57
165 -120 263 -259 405 -230 234 -420 313 -768 321 -119 3 -191 0 -240 -9z"/>
</g>
</svg>
