<?xml version="1.0" standalone="no"?>
<!DOCTYPE svg PUBLIC "-//W3C//DTD SVG 20010904//EN"
 "http://www.w3.org/TR/2001/REC-SVG-20010904/DTD/svg10.dtd">
<svg version="1.0" xmlns="http://www.w3.org/2000/svg"
 width="1380.000000pt" height="592.000000pt" viewBox="0 0 1380.000000 592.000000"
 preserveAspectRatio="xMidYMid meet">

<g transform="translate(0.000000,592.000000) scale(0.100000,-0.100000)"
fill="#000000" stroke="none">
<path d="M690 5685 c-99 -31 -173 -130 -173 -235 0 -43 405 -2111 584 -2978
34 -170 45 -196 95 -244 61 -58 102 -71 242 -76 l122 -4 0 -69 c0 -78 12 -111
49 -136 24 -17 98 -18 1163 -23 1075 -5 1138 -6 1155 -23 17 -17 18 -59 21
-665 1 -356 0 -657 -3 -670 -3 -12 -14 -31 -25 -42 -20 -20 -39 -20 -1369 -20
-817 0 -1359 -4 -1374 -9 -59 -23 -87 -87 -63 -145 30 -72 -109 -66 1594 -66
l1534 0 35 35 36 36 -7 102 c-6 97 -53 767 -96 1373 -11 155 -20 290 -20 301
0 18 8 21 88 25 99 6 142 21 196 68 72 63 81 95 81 270 0 140 -2 159 -22 195
-28 52 -78 99 -128 122 -38 17 -113 18 -1280 23 -1185 5 -1242 6 -1275 24 -43
23 -97 73 -115 106 -7 14 -39 117 -70 230 -59 213 -291 1046 -350 1255 -18 66
-95 341 -170 610 -88 315 -145 503 -160 527 -32 48 -83 86 -141 104 -58 17
-95 17 -154 -1z m175 -39 c59 -27 97 -68 119 -128 8 -24 42 -140 75 -258 33
-118 83 -298 111 -400 28 -102 157 -563 285 -1025 131 -469 246 -863 261 -892
14 -29 41 -64 60 -78 79 -60 -3 -57 1329 -62 816 -3 1234 -8 1262 -15 54 -13
115 -66 143 -123 20 -41 22 -58 18 -189 -3 -142 -3 -145 -33 -188 -35 -49 -82
-83 -134 -98 -55 -15 -3002 -14 -3053 2 -52 15 -122 78 -141 126 -8 21 -140
663 -292 1427 -151 765 -290 1457 -306 1539 -21 100 -29 162 -25 188 25 155
181 240 321 174z m3299 -3578 c9 -109 47 -648 87 -1235 l33 -473 -24 -25 -23
-25 -1529 0 -1529 0 -24 25 c-33 33 -32 70 4 106 l29 29 1352 0 c1498 0 1397
-5 1426 65 21 50 21 1299 0 1349 -30 71 64 66 -1187 66 l-1127 0 -31 26 c-29
25 -31 29 -31 100 l0 74 1284 0 1284 0 6 -82z"/>
<path d="M6195 5633 c-214 -2 -392 -7 -396 -11 -4 -4 -35 -113 -68 -242 -34
-129 -79 -305 -101 -390 -23 -85 -63 -243 -91 -350 -28 -107 -55 -212 -60
-232 l-10 -38 -227 0 c-202 0 -231 -2 -262 -19 -55 -29 -75 -64 -75 -131 0
-68 21 -105 76 -132 32 -17 101 -18 1022 -18 l987 0 0 -1339 c0 -1059 -3
-1341 -12 -1348 -7 -6 -238 -124 -513 -263 -275 -139 -681 -344 -902 -457
l-403 -204 0 -110 c0 -60 2 -109 4 -109 4 0 774 282 1547 566 141 52 261 94
268 94 6 0 11 -13 11 -30 l0 -30 85 0 85 0 0 26 c0 32 -29 39 280 -74 1115
-410 1504 -552 1510 -552 4 0 8 48 9 108 l1 107 -337 171 c-186 95 -585 297
-888 449 -302 153 -556 282 -562 288 -10 7 -13 291 -13 1358 l0 1349 988 0
c942 0 989 1 1022 19 55 29 75 64 75 129 0 43 -6 65 -22 88 -49 68 47 64
-1390 66 -714 1 -1232 4 -1150 5 81 2 147 6 147 8 0 3 -38 128 -85 279 l-85
274 78 343 c43 189 77 347 75 352 -2 4 -55 6 -116 5 -62 -2 -287 -4 -502 -5z
m585 -32 c0 -6 -30 -139 -66 -298 -162 -711 -204 -898 -204 -905 0 -5 -225 -8
-500 -8 -429 0 -500 2 -500 14 0 8 61 250 136 538 75 288 144 552 153 588 l17
65 249 5 c469 10 715 10 715 1z m2384 -1280 c55 -36 71 -102 41 -161 -33 -65
130 -60 -2130 -60 -1818 0 -2059 2 -2085 15 -55 28 -76 105 -45 165 33 64
-130 59 2130 60 2020 0 2061 -1 2089 -19z"/>
<path d="M5937 5474 c-20 -20 33 -24 314 -24 268 0 309 2 309 15 0 13 -41 15
-308 15 -170 0 -312 -3 -315 -6z"/>
<path d="M12946 5626 c-52 -20 -107 -65 -133 -111 -12 -22 -44 -120 -72 -220
-28 -99 -118 -423 -201 -720 -83 -297 -162 -578 -175 -625 -13 -47 -83 -296
-155 -554 -72 -258 -137 -481 -145 -495 -21 -41 -59 -77 -104 -101 l-42 -21
-1247 -7 -1247 -7 -41 -22 c-57 -30 -111 -97 -129 -157 -17 -58 -20 -242 -5
-298 6 -20 25 -58 43 -85 46 -69 118 -103 231 -110 l86 -6 0 -38 c0 -35 -27
-430 -50 -739 -6 -74 -21 -297 -35 -495 -13 -198 -27 -394 -30 -435 -5 -64 -3
-80 15 -108 11 -18 32 -37 46 -42 35 -14 3043 -14 3078 0 30 11 66 65 66 98 0
13 -7 36 -15 52 -33 64 59 60 -1424 60 l-1350 0 -28 24 -28 24 -3 649 c-2 475
1 655 9 676 25 60 -36 57 1191 57 1049 0 1124 2 1144 18 34 27 44 56 44 130
l0 69 123 5 c138 5 189 22 245 79 41 41 58 72 71 130 6 24 130 647 277 1384
146 737 281 1419 301 1515 37 184 38 231 7 293 -23 46 -73 95 -119 119 -51 26
-147 33 -199 14z m180 -35 c74 -33 134 -124 134 -203 0 -14 -24 -149 -54 -300
-30 -150 -168 -842 -306 -1538 -138 -696 -259 -1280 -267 -1298 -23 -48 -96
-108 -148 -121 -31 -8 -467 -11 -1523 -11 -1586 0 -1529 -2 -1601 49 -17 12
-43 43 -58 69 -26 43 -28 57 -32 170 -2 78 1 140 9 167 16 56 68 118 123 143
41 20 71 20 1276 27 1316 8 1272 6 1340 56 63 46 79 82 150 339 22 80 117 422
211 760 479 1713 447 1607 498 1653 62 56 171 73 248 38z m-916 -3574 c0 -66
-3 -76 -26 -98 l-26 -24 -1140 -5 -1140 -5 -24 -28 -24 -28 0 -674 0 -675 29
-32 29 -33 1372 -5 1372 -5 19 -24 c26 -32 24 -77 -6 -106 l-24 -25 -1526 0
-1526 0 -24 25 c-28 28 -29 31 -15 210 18 238 110 1565 110 1585 0 20 11 20
1285 20 l1285 0 0 -73z"/>
</g>
</svg>
